{
  "asset": {
    "version": "2.0",
    "generator": "THREE.GLTFExporter"
  },
  "scenes": [
    {
      "name": "Scene",
      "nodes": [
        9,
        10,
        11
      ]
    }
  ],
  "scene": 0,
  "nodes": [
    {
      "name": "Object1",
      "extras": {
        "name": "Object.1"
      },
      "mesh": 0
    },
    {
      "name": "Object2",
      "extras": {
        "name": "Object.2"
      },
      "mesh": 1
    },
    {
      "name": "Object3",
      "extras": {
        "name": "Object.3"
      },
      "mesh": 2
    },
    {
      "name": "Object4",
      "extras": {
        "name": "Object.4"
      },
      "mesh": 3
    },
    {
      "name": "Object5",
      "extras": {
        "name": "Object.5"
      },
      "mesh": 4
    },
    {
      "name": "Object6",
      "extras": {
        "name": "Object.6"
      },
      "mesh": 5
    },
    {
      "name": "Object7",
      "extras": {
        "name": "Object.7"
      },
      "mesh": 6
    },
    {
      "name": "Object8",
      "extras": {
        "name": "Object.8"
      },
      "mesh": 7
    },
    {
      "matrix": [
        0.2,
        0,
        0,
        0,
        0,
        0.2,
        0,
        0,
        0,
        0,
        0.2,
        0,
        0,
        0,
        0,
        1
      ],
      "name": "shovelobj",
      "extras": {
        "name": "shovel.obj"
      },
      "children": [
        0,
        1,
        2,
        3,
        4,
        5,
        6,
        7
      ]
    },
    {
      "name": "excavator.gltf",
      "children": [
        8
      ]
    },
    {
      "matrix": [
        1,
        0,
        0,
        0,
        0,
        1,
        0,
        0,
        0,
        0,
        1,
        0,
        -1.2984102974186973,
        37.34466471887689,
        -2.265305009439509,
        1
      ],
      "name": "DirectionalLight",
      "extensions": {
        "KHR_lights_punctual": {
          "light": 0
        }
      }
    },
    {
      "matrix": [
        1,
        0,
        0,
        0,
        0,
        1,
        0,
        0,
        0,
        0,
        1,
        0,
        4.2173068864284,
        28.72951262376271,
        -17.036130277316396,
        1
      ],
      "name": "AmbientLight"
    }
  ],
  "bufferViews": [
    {
      "buffer": 0,
      "byteOffset": 0,
      "byteLength": 14688,
      "target": 34962,
      "byteStride": 12
    },
    {
      "buffer": 0,
      "byteOffset": 14688,
      "byteLength": 14688,
      "target": 34962,
      "byteStride": 12
    },
    {
      "buffer": 0,
      "byteOffset": 29376,
      "byteLength": 125136,
      "target": 34962,
      "byteStride": 12
    },
    {
      "buffer": 0,
      "byteOffset": 154512,
      "byteLength": 125136,
      "target": 34962,
      "byteStride": 12
    },
    {
      "buffer": 0,
      "byteOffset": 279648,
      "byteLength": 125136,
      "target": 34962,
      "byteStride": 12
    },
    {
      "buffer": 0,
      "byteOffset": 404784,
      "byteLength": 125136,
      "target": 34962,
      "byteStride": 12
    },
    {
      "buffer": 0,
      "byteOffset": 529920,
      "byteLength": 50688,
      "target": 34962,
      "byteStride": 12
    },
    {
      "buffer": 0,
      "byteOffset": 580608,
      "byteLength": 50688,
      "target": 34962,
      "byteStride": 12
    },
    {
      "buffer": 0,
      "byteOffset": 631296,
      "byteLength": 69984,
      "target": 34962,
      "byteStride": 12
    },
    {
      "buffer": 0,
      "byteOffset": 701280,
      "byteLength": 69984,
      "target": 34962,
      "byteStride": 12
    },
    {
      "buffer": 0,
      "byteOffset": 771264,
      "byteLength": 25488,
      "target": 34962,
      "byteStride": 12
    },
    {
      "buffer": 0,
      "byteOffset": 796752,
      "byteLength": 25488,
      "target": 34962,
      "byteStride": 12
    },
    {
      "buffer": 0,
      "byteOffset": 822240,
      "byteLength": 27360,
      "target": 34962,
      "byteStride": 12
    },
    {
      "buffer": 0,
      "byteOffset": 849600,
      "byteLength": 27360,
      "target": 34962,
      "byteStride": 12
    },
    {
      "buffer": 0,
      "byteOffset": 876960,
      "byteLength": 24696,
      "target": 34962,
      "byteStride": 12
    },
    {
      "buffer": 0,
      "byteOffset": 901656,
      "byteLength": 24696,
      "target": 34962,
      "byteStride": 12
    }
  ],
  "buffers": [
    {
      "byteLength": 926352,
      "uri": "data:application/octet-stream;base64,"
    }
  ],
  "accessors": [
    {
      "bufferView": 0,
      "componentType": 5126,
      "count": 1224,
      "max": [
        1.2226660251617432,
        10.141404151916504,
        18.405624389648438
      ],
      "min": [
        -31.909833908081055,
        6.106664180755615,
        -9.302223205566406
      ],
      "type": "VEC3"
    },
    {
      "bufferView": 1,
      "componentType": 5126,
      "count": 1224,
      "max": [
        0.9999004006385803,
        1,
        0.9999004006385803
      ],
      "min": [
        -0.999897837638855,
        -1,
        -0.9998980164527893
      ],
      "type": "VEC3"
    },
    {
      "bufferView": 2,
      "componentType": 5126,
      "count": 10428,
      "max": [
        13.197591781616211,
        14.178901672363281,
        26.374298095703125
      ],
      "min": [
        -46.27774429321289,
        0,
        15.782891273498535
      ],
      "type": "VEC3"
    },
    {
      "bufferView": 3,
      "componentType": 5126,
      "count": 10428,
      "max": [
        0.999591588973999,
        0.9999979138374329,
        0.99974125623703
      ],
      "min": [
        -0.9995936751365662,
        -0.9999982118606567,
        -0.9996660351753235
      ],
      "type": "VEC3"
    },
    {
      "bufferView": 4,
      "componentType": 5126,
      "count": 10428,
      "max": [
        15.953994750976562,
        14.178701400756836,
        -6.593922138214111
      ],
      "min": [
        -43.521141052246094,
        0.0003549999964889139,
        -17.18512725830078
      ],
      "type": "VEC3"
    },
    {
      "bufferView": 5,
      "componentType": 5126,
      "count": 10428,
      "max": [
        0.9995836615562439,
        0.9999960064888,
        0.9996230006217957
      ],
      "min": [
        -0.9995840191841125,
        -0.999998152256012,
        -0.9998343586921692
      ],
      "type": "VEC3"
    },
    {
      "bufferView": 6,
      "componentType": 5126,
      "count": 4224,
      "max": [
        12.083093643188477,
        40.371009826660156,
        -2.0333189964294434
      ],
      "min": [
        -15.043222427368164,
        14.914701461791992,
        -17.923927307128906
      ],
      "type": "VEC3"
    },
    {
      "bufferView": 7,
      "componentType": 5126,
      "count": 4224,
      "max": [
        0.9992014169692993,
        0.998026967048645,
        0.9995575547218323
      ],
      "min": [
        -0.9992074966430664,
        -0.99942547082901,
        -0.9994068145751953
      ],
      "type": "VEC3"
    },
    {
      "bufferView": 8,
      "componentType": 5126,
      "count": 5832,
      "max": [
        11.441993713378906,
        30.578916549682617,
        24.932037353515625
      ],
      "min": [
        -46.45894241333008,
        12.225396156311035,
        -17.03902816772461
      ],
      "type": "VEC3"
    },
    {
      "bufferView": 9,
      "componentType": 5126,
      "count": 5832,
      "max": [
        0.9998610615730286,
        1,
        0.9998701810836792
      ],
      "min": [
        -0.9998658895492554,
        -1,
        -0.9998553991317749
      ],
      "type": "VEC3"
    },
    {
      "bufferView": 10,
      "componentType": 5126,
      "count": 2124,
      "max": [
        61.439537048339844,
        77.34931945800781,
        9.192289352416992
      ],
      "min": [
        -2.5468430519104004,
        21.402103424072266,
        2.2056829929351807
      ],
      "type": "VEC3"
    },
    {
      "bufferView": 11,
      "componentType": 5126,
      "count": 2124,
      "max": [
        0.9998818635940552,
        0.9999026656150818,
        0.9999136328697205
      ],
      "min": [
        -0.9998853802680969,
        -0.9998016357421875,
        -0.9999184608459473
      ],
      "type": "VEC3"
    },
    {
      "bufferView": 12,
      "componentType": 5126,
      "count": 2280,
      "max": [
        105.94095611572266,
        50.925498962402344,
        15.012690544128418
      ],
      "min": [
        89.2149429321289,
        30.578786849975586,
        -1.4376180171966553
      ],
      "type": "VEC3"
    },
    {
      "bufferView": 13,
      "componentType": 5126,
      "count": 2280,
      "max": [
        0.9981101751327515,
        0.9995798468589783,
        0.9997689723968506
      ],
      "min": [
        -0.9981116652488708,
        -0.9997425079345703,
        -0.999767541885376
      ],
      "type": "VEC3"
    },
    {
      "bufferView": 14,
      "componentType": 5126,
      "count": 2058,
      "max": [
        97.60395812988281,
        77.34931945800781,
        8.750387191772461
      ],
      "min": [
        55.765933990478516,
        46.0026969909668,
        4.522684097290039
      ],
      "type": "VEC3"
    },
    {
      "bufferView": 15,
      "componentType": 5126,
      "count": 2058,
      "max": [
        0.999847948551178,
        0.9999378323554993,
        0.9999387264251709
      ],
      "min": [
        -0.9997907876968384,
        -0.9999380707740784,
        -0.9999437928199768
      ],
      "type": "VEC3"
    }
  ],
  "materials": [
    {
      "pbrMetallicRoughness": {
        "baseColorFactor": [
          0.8784313725490196,
          0.7686274509803922,
          0.043137254901960784,
          1
        ],
        "metallicFactor": 0.5,
        "roughnessFactor": 0.5
      },
      "name": "Default_0"
    },
    {
      "pbrMetallicRoughness": {
        "baseColorFactor": [
          0.7843137254901961,
          0.7843137254901961,
          0.7843137254901961,
          1
        ],
        "metallicFactor": 0.5,
        "roughnessFactor": 0.5
      }
    },
    {
      "pbrMetallicRoughness": {
        "baseColorFactor": [
          0.7843137254901961,
          0.7843137254901961,
          0.7843137254901961,
          1
        ],
        "metallicFactor": 0.5,
        "roughnessFactor": 0.5
      }
    },
    {
      "pbrMetallicRoughness": {
        "baseColorFactor": [
          0.5058823529411764,
          0.49411764705882355,
          0.49411764705882355,
          1
        ],
        "metallicFactor": 0.5,
        "roughnessFactor": 0.5
      }
    },
    {
      "pbrMetallicRoughness": {
        "baseColorFactor": [
          0.45098039215686275,
          0.42745098039215684,
          0.10980392156862745,
          1
        ],
        "metallicFactor": 0,
        "roughnessFactor": 1
      }
    }
  ],
  "meshes": [
    {
      "primitives": [
        {
          "mode": 4,
          "attributes": {
            "POSITION": 0,
            "NORMAL": 1
          },
          "material": 0
        }
      ]
    },
    {
      "primitives": [
        {
          "mode": 4,
          "attributes": {
            "POSITION": 2,
            "NORMAL": 3
          },
          "material": 1
        }
      ]
    },
    {
      "primitives": [
        {
          "mode": 4,
          "attributes": {
            "POSITION": 4,
            "NORMAL": 5
          },
          "material": 2
        }
      ]
    },
    {
      "primitives": [
        {
          "mode": 4,
          "attributes": {
            "POSITION": 6,
            "NORMAL": 7
          },
          "material": 3
        }
      ]
    },
    {
      "primitives": [
        {
          "mode": 4,
          "attributes": {
            "POSITION": 8,
            "NORMAL": 9
          },
          "material": 0
        }
      ]
    },
    {
      "primitives": [
        {
          "mode": 4,
          "attributes": {
            "POSITION": 10,
            "NORMAL": 11
          },
          "material": 0
        }
      ]
    },
    {
      "primitives": [
        {
          "mode": 4,
          "attributes": {
            "POSITION": 12,
            "NORMAL": 13
          },
          "material": 0
        }
      ]
    },
    {
      "primitives": [
        {
          "mode": 4,
          "attributes": {
            "POSITION": 14,
            "NORMAL": 15
          },
          "material": 4
        }
      ]
    }
  ],
  "extensions": {
    "KHR_lights_punctual": {
      "lights": [
        {
          "name": "DirectionalLight",
          "color": [
            1,
            1,
            1
          ],
          "intensity": 1,
          "type": "directional"
        }
      ]
    }
  },
  "extensionsUsed": [
    "KHR_lights_punctual"
  ]
}