<?xml version="1.0"?>
<svg xmlns="http://www.w3.org/2000/svg" xmlns:xlink="http://www.w3.org/1999/xlink" xmlns:svgjs="http://svgjs.com/svgjs" version="1.1" width="512" height="512" x="0" y="0" viewBox="0 0 128 128" style="enable-background:new 0 0 512 512" xml:space="preserve" class=""><g><path xmlns="http://www.w3.org/2000/svg" d="m41.041 39.375-10.548 13.976h-22.414v22.414h65.924v-36.39z" fill="#fb8c00" data-original="#fb8c00" style="" class=""/><path xmlns="http://www.w3.org/2000/svg" d="m27.51 57.354 3.021-4.003h-22.452v4.003z" fill="#ef6c00" data-original="#ef6c00" style="" class=""/><path xmlns="http://www.w3.org/2000/svg" d="m41.041 39.375-3.021 4h25.98a6 6 0 0 1 6 6v26.39h4v-36.39z" fill="#ef6c00" data-original="#ef6c00" style="" class=""/><path xmlns="http://www.w3.org/2000/svg" d="m80.33 102.36a14.015 14.015 0 0 1 -14.02 14.02h-50.54a14.02 14.02 0 1 1 0-28.04h50.54a14.011 14.011 0 0 1 14.02 14.02z" fill="#fb8c00" data-original="#fb8c00" style="" class=""/><path xmlns="http://www.w3.org/2000/svg" d="m66.31 88.34h-50.54a14 14 0 0 0 -9.91 4.1 14.133 14.133 0 0 0 -1.385 1.636 13.948 13.948 0 0 1 8.292-2.734h50.54a14 14 0 0 1 11.293 22.306 14.009 14.009 0 0 0 -8.29-25.308z" fill="#ef6c00" data-original="#ef6c00" style="" class=""/><path xmlns="http://www.w3.org/2000/svg" d="m25.516 75.765h31.051v12.57h-31.051z" fill="#5d4037" data-original="#5d4037" style="" class=""/><path xmlns="http://www.w3.org/2000/svg" d="m25.516 75.765v3h21.047a6 6 0 0 1 6 6v3.567h4v-12.567z" fill="#4c352e" data-original="#4c352e" style="" class=""/><g xmlns="http://www.w3.org/2000/svg" fill="#ffca90"><path d="m63.25 104.1h-44.418a1.75 1.75 0 0 1 0-3.5h44.418a1.75 1.75 0 1 1 0 3.5z" fill="#ffca90" data-original="#ffca90" style="" class=""/><path d="m27.27 88.34v5.75a1.75 1.75 0 0 1 -3.5 0v-5.75z" fill="#ffca90" data-original="#ffca90" style="" class=""/><path d="m35.03 88.34v5.75a1.75 1.75 0 1 1 -3.5 0v-5.75z" fill="#ffca90" data-original="#ffca90" style="" class=""/><path d="m42.79 88.34v5.75a1.75 1.75 0 0 1 -3.5 0v-5.75z" fill="#ffca90" data-original="#ffca90" style="" class=""/><path d="m50.55 88.34v5.75a1.75 1.75 0 0 1 -3.5 0v-5.75z" fill="#ffca90" data-original="#ffca90" style="" class=""/><path d="m58.32 88.34v5.75a1.75 1.75 0 0 1 -3.5 0v-5.75z" fill="#ffca90" data-original="#ffca90" style="" class=""/><path d="m26.07 110.17v6.21h-3.5v-6.21a1.75 1.75 0 1 1 3.5 0z" fill="#ffca90" data-original="#ffca90" style="" class=""/><path d="m34.43 110.17v6.21h-3.5v-6.21a1.75 1.75 0 0 1 3.5 0z" fill="#ffca90" data-original="#ffca90" style="" class=""/><path d="m42.79 110.17v6.21h-3.5v-6.21a1.75 1.75 0 0 1 3.5 0z" fill="#ffca90" data-original="#ffca90" style="" class=""/><path d="m51.15 110.17v6.21h-3.5v-6.21a1.75 1.75 0 0 1 3.5 0z" fill="#ffca90" data-original="#ffca90" style="" class=""/><path d="m59.51 110.17v6.21h-3.5v-6.21a1.75 1.75 0 0 1 3.5 0z" fill="#ffca90" data-original="#ffca90" style="" class=""/></g><path xmlns="http://www.w3.org/2000/svg" d="m45.612 49.747h28.392v15.646h-28.392z" fill="#5d4037" data-original="#5d4037" style="" class=""/><path xmlns="http://www.w3.org/2000/svg" d="m8.079 66.7h24.348a1.75 1.75 0 0 0 0-3.5h-24.348z" fill="#5d4037" data-original="#5d4037" style="" class=""/><path xmlns="http://www.w3.org/2000/svg" d="m126.25 11.62v71.17h-10v-61.17h-44.43l-1.34 1.34-5.89 5.9-1.34 1.34v9.18h-10v-13.33l14.43-14.43z" fill="#ffca90" data-original="#ffca90" style="" class=""/><path xmlns="http://www.w3.org/2000/svg" d="m67.68 11.62-3.002 3.002h58.57v68.168h3.002v-71.17z" fill="#dda976" data-original="#dda976" style="" class=""/><path xmlns="http://www.w3.org/2000/svg" d="m126.25 99.792h-25.75l-10-17h35.75z" fill="#fb8c00" data-original="#fb8c00" style="" class=""/><path xmlns="http://www.w3.org/2000/svg" d="m90.5 82.792 1.766 3h24.982a6 6 0 0 1 6 6v8h3v-17z" fill="#ef6c00" data-original="#ef6c00" style="" class=""/><path xmlns="http://www.w3.org/2000/svg" d="m109.833 89.542h-15.362l2.059 3.5h13.3a1.75 1.75 0 0 0 0-3.5z" fill="#5d4037" data-original="#5d4037" style="" class=""/><path xmlns="http://www.w3.org/2000/svg" d="m116.25 11.625h10v10h-10z" fill="#00acc1" data-original="#00acc1" style="" class=""/><path xmlns="http://www.w3.org/2000/svg" d="m73.72 21.62h-1.9l-1.34 1.34-4.14-10 1.34-1.34h1.89z" fill="#fb8c00" data-original="#fb8c00" style="" class=""/><path xmlns="http://www.w3.org/2000/svg" d="m64.59 28.86-1.34 1.34v1.89l-10-4.14v-1.9l1.34-1.34z" fill="#fb8c00" data-original="#fb8c00" style="" class=""/><path xmlns="http://www.w3.org/2000/svg" d="m90.5 74.25h.333a6 6 0 0 1 6 6v2.542a0 0 0 0 1 0 0h-6.333a0 0 0 0 1 0 0v-8.542a0 0 0 0 1 0 0z" fill="#5d4037" data-original="#5d4037" style="" class=""/><circle xmlns="http://www.w3.org/2000/svg" cx="15.77" cy="102.355" fill="#5d4037" r="5.582" data-original="#5d4037" style="" class=""/><circle xmlns="http://www.w3.org/2000/svg" cx="66.312" cy="102.355" fill="#5d4037" r="5.582" data-original="#5d4037" style="" class=""/><path xmlns="http://www.w3.org/2000/svg" d="m66.312 96.773a5.6 5.6 0 0 0 -1 .094 5.577 5.577 0 0 1 0 10.974 5.58 5.58 0 1 0 1-11.069z" fill="#4c352e" data-original="#4c352e" style="" class=""/><path xmlns="http://www.w3.org/2000/svg" d="m15.77 96.773a5.6 5.6 0 0 0 -1 .094 5.577 5.577 0 0 1 0 10.974 5.58 5.58 0 1 0 1-11.069z" fill="#4c352e" data-original="#4c352e" style="" class=""/><path xmlns="http://www.w3.org/2000/svg" d="m116.25 14.622h1a6 6 0 0 1 6 6v1h3v-10h-10z" fill="#0097a7" data-original="#0097a7" style="" class=""/><path xmlns="http://www.w3.org/2000/svg" d="m70 49.747h4.003v15.646h-4.003z" fill="#4c352e" data-original="#4c352e" style="" class=""/><path xmlns="http://www.w3.org/2000/svg" d="m54.82 88.34h3.5v2.952h-3.5z" fill="#dda976" data-original="#dda976" style="" class=""/><path xmlns="http://www.w3.org/2000/svg" d="m47.05 88.34h3.5v2.952h-3.5z" fill="#dda976" data-original="#dda976" style="" class=""/><path xmlns="http://www.w3.org/2000/svg" d="m39.28 88.34h3.5v2.952h-3.5z" fill="#dda976" data-original="#dda976" style="" class=""/><path xmlns="http://www.w3.org/2000/svg" d="m31.51 88.34h3.5v2.952h-3.5z" fill="#dda976" data-original="#dda976" style="" class=""/><path xmlns="http://www.w3.org/2000/svg" d="m23.74 88.34h3.5v2.952h-3.5z" fill="#dda976" data-original="#dda976" style="" class=""/></g></svg>
